# xmcd
#
# Track frame offsets:
#	182
#	11260
#	27545
#	39862
#	51952
#	71080
#	88825
#	98440
#	118542
#	134922
#	148105
#	159317
#	175170
#	187975
#	201735
#
# Disc length: 2906 seconds
#
# Revision: 3
# Processed by: cddbd v1.5.2PL0 Copyright (c) Steve Scherf et al.
# Submitted via: audiograbber 1.83.01
#
DISCID=d30b580f
DTITLE=Various Artist - MM6047
DYEAR=1900
DGENRE=Karaoke
TTITLE0=Martin, Steve - King Tut
TTITLE1=Yankovic, 'Weird Al' - Eat It
TTITLE2=Sherman, Allan - Hello Muddah
TTITLE3=Donegan, Lonnie - Does Your Chewing Gum Lose It's Flavor
TTITLE4=Stevens, Ray - Mississippi Squirrel Revival
TTITLE5=Cash, Johnny - Boy Named Sue, A
TTITLE6=Marathons, The - Peanut Butter
TTITLE7=Murphy, Eddie - Party All The Time
TTITLE8=M - Pop Muzik
TTITLE9=Royal Guardsmen - Snoopy Vs. The Red Baron
TTITLE10=K-Doe, Ernie - Mother In Law
TTITLE11=Dolce, Joe - Shaddap A You Face
TTITLE12=Horton, Johnny - Battle Of New Orleans, The
TTITLE13=Gray, Joel - Money Makes The World Go 'Round
TTITLE14=Yankovic, 'Weird Al' - Like A Surgeon
EXTD=
EXTT0=
EXTT1=
EXTT2=
EXTT3=
EXTT4=
EXTT5=
EXTT6=
EXTT7=
EXTT8=
EXTT9=
EXTT10=
EXTT11=
EXTT12=
EXTT13=
EXTT14=
PLAYORDER=
